{
    "accessors" : [
        {
            "bufferView" : 0,
            "componentType" : 5123,
            "count" : 4188,
            "max" : [
                938
            ],
            "min" : [
                0
            ],
            "type" : "SCALAR"
        },
        {
            "bufferView" : 1,
            "componentType" : 5126,
            "count" : 939,
            "max" : [
                0.4576267600059509,
                0.9376808404922485,
                1.2421245574951172
            ],
            "min" : [
                -0.49473321437835693,
                -0.002919524908065796,
                -1.1566954851150513
            ],
            "type" : "VEC3"
        },
        {
            "bufferView" : 2,
            "componentType" : 5126,
            "count" : 939,
            "max" : [
                0.99951171875,
                0.99993896484375,
                0.9988707900047302
            ],
            "min" : [
                -0.9989013075828552,
                -0.999969482421875,
                -0.999542236328125
            ],
            "type" : "VEC3"
        },
        {
            "bufferView" : 3,
            "componentType" : 5126,
            "count" : 939,
            "max" : [
                0.9999164342880249,
                0.9992538094520569,
                0.9999922513961792,
                1.0
            ],
            "min" : [
                -0.9997283220291138,
                -0.9985084533691406,
                -0.9999731779098511,
                1.0
            ],
            "type" : "VEC4"
        },
        {
            "bufferView" : 4,
            "componentType" : 5126,
            "count" : 939,
            "max" : [
                0.9891999959945679,
                0.9945000000298023
            ],
            "min" : [
                0.013100000098347664,
                0.013999998569488525
            ],
            "type" : "VEC2"
        },
        {
            "bufferView" : 5,
            "componentType" : 5123,
            "count" : 939,
            "max" : [
                0,
                1,
                1,
                1
            ],
            "min" : [
                0,
                0,
                0,
                0
            ],
            "type" : "VEC4"
        },
        {
            "bufferView" : 6,
            "componentType" : 5126,
            "count" : 939,
            "max" : [
                0.0,
                1.0000057220458984,
                1.0000064373016357,
                0.9710491299629211
            ],
            "min" : [
                0.0,
                0.0,
                0.0,
                0.0
            ],
            "type" : "VEC4"
        },
        {
            "bufferView" : 7,
            "componentType" : 5126,
            "count" : 2,
            "max" : [
                1.0,
                0.0,
                0.0,
                0.0,
                0.0,
                -1.186716858114778e-08,
                -1.0,
                0.0,
                0.0,
                1.0,
                7.105427357601002e-15,
                0.0,
                0.0,
                0.9597602486610413,
                0.15516862273216248,
                1.0
            ],
            "min" : [
                1.0,
                0.0,
                0.0,
                0.0,
                0.0,
                -4.371138828673793e-08,
                -1.0,
                0.0,
                0.0,
                1.0,
                -3.184421260016279e-08,
                0.0,
                0.0,
                -0.412903368473053,
                0.15516860783100128,
                1.0
            ],
            "type" : "MAT4"
        }
    ],
    "asset" : {
        "generator" : "Khronos Blender glTF 2.0 exporter",
        "version" : "2.0"
    },
    "bufferViews" : [
        {
            "buffer" : 0,
            "byteLength" : 8376,
            "byteOffset" : 0,
            "target" : 34963
        },
        {
            "buffer" : 0,
            "byteLength" : 11268,
            "byteOffset" : 8376,
            "target" : 34962
        },
        {
            "buffer" : 0,
            "byteLength" : 11268,
            "byteOffset" : 19644,
            "target" : 34962
        },
        {
            "buffer" : 0,
            "byteLength" : 15024,
            "byteOffset" : 30912,
            "target" : 34962
        },
        {
            "buffer" : 0,
            "byteLength" : 7512,
            "byteOffset" : 45936,
            "target" : 34962
        },
        {
            "buffer" : 0,
            "byteLength" : 7512,
            "byteOffset" : 53448,
            "target" : 34962
        },
        {
            "buffer" : 0,
            "byteLength" : 15024,
            "byteOffset" : 60960,
            "target" : 34962
        },
        {
            "buffer" : 0,
            "byteLength" : 128,
            "byteOffset" : 75984
        }
    ],
    "buffers" : [
        {
            "byteLength" : 76112,
            "uri" : "mh-shoe.bin"
        }
    ],
    "images" : [
        {
            "name" : "martialartshoes",
            "uri" : "martialartshoes.png"
        }
    ],
    "materials" : [
        {
            "alphaMode" : "BLEND",
            "name" : "Mh_female:Martialartshoes:Martialartshoes",
            "pbrMetallicRoughness" : {
                "baseColorTexture" : {
                    "index" : 0
                }
            }
        }
    ],
    "meshes" : [
        {
            "name" : "Mh_female:Martialartshoes",
            "primitives" : [
                {
                    "attributes" : {
                        "JOINTS_0" : 5,
                        "NORMAL" : 2,
                        "POSITION" : 1,
                        "TANGENT" : 3,
                        "TEXCOORD_0" : 4,
                        "WEIGHTS_0" : 6
                    },
                    "indices" : 0,
                    "material" : 0
                }
            ]
        }
    ],
    "nodes" : [
        {
            "children" : [
                2,
                3
            ],
            "name" : "Armature",
            "rotation" : [
                0.7071068286895752,
                0.0,
                -0.0,
                0.7071068286895752
            ],
            "translation" : [
                0.0,
                0.15516865253448486,
                -0.9597602486610413
            ]
        },
        {
            "name" : "Hemi",
            "translation" : [
                7.243046760559082,
                5.52623176574707,
                -6.525513648986816
            ]
        },
        {
            "mesh" : 0,
            "name" : "Mh_shoe",
            "rotation" : [
                -0.7071068286895752,
                0.0,
                -0.0,
                0.7071068286895752
            ],
            "skin" : 0,
            "translation" : [
                0.0,
                0.9597602486610413,
                0.15516860783100128
            ]
        },
        {
            "children" : [
                4
            ],
            "name" : "Armature_Bone",
            "rotation" : [
                -2.9667941436883893e-09,
                0.0,
                0.0,
                1.0
            ]
        },
        {
            "name" : "Armature_FrontBone",
            "rotation" : [
                -1.5922109852795074e-08,
                0.0,
                0.0,
                1.0
            ],
            "translation" : [
                0.0,
                1.3726636171340942,
                0.0
            ]
        }
    ],
    "samplers" : [
        {}
    ],
    "scene" : 0,
    "scenes" : [
        {
            "name" : "Scene",
            "nodes" : [
                0,
                1
            ]
        }
    ],
    "skins" : [
        {
            "inverseBindMatrices" : 7,
            "joints" : [
                3,
                4
            ],
            "skeleton" : 0
        }
    ],
    "textures" : [
        {
            "sampler" : 0,
            "source" : 0
        }
    ]
}
